<?xml version="1.0" encoding="UTF-8" standalone="no"?>
<!DOCTYPE svg PUBLIC "-//W3C//DTD SVG 1.1//EN" "http://www.w3.org/Graphics/SVG/1.1/DTD/svg11.dtd">
<svg width="100%" height="100%" viewBox="0 0 3300 2550" version="1.1" xmlns="http://www.w3.org/2000/svg" xmlns:xlink="http://www.w3.org/1999/xlink" xml:space="preserve" xmlns:serif="http://www.serif.com/" style="fill-rule:evenodd;clip-rule:evenodd;stroke-linejoin:round;stroke-miterlimit:2;">
    <g transform="matrix(1.14137,0,0,1.50565,866.433,-813.691)">
        <path d="M1392.78,1396.77L1711.35,2234.05L1074.21,2234.05L1392.78,1396.77Z" style="fill:rgb(79,143,0);"/>
    </g>
    <g transform="matrix(1,0,0,1,1588.65,315.947)">
        <path d="M1392.78,1396.77L1711.35,2234.05L1074.21,2234.05L1392.78,1396.77Z" style="fill:rgb(141,204,51);"/>
    </g>
    <g transform="matrix(0.605368,0,0,0.712225,135.395,64.6525)">
        <ellipse cx="1006.83" cy="682.335" rx="268.17" ry="229.569" style="fill:rgb(206,217,38);"/>
    </g>
    <g transform="matrix(1,0,0,1,505.504,-134.712)">
        <ellipse cx="701.689" cy="1083.37" rx="269.056" ry="226.23" style="fill:rgb(255,47,146);"/>
    </g>
    <g transform="matrix(0.174884,0,0,0.223345,359.579,1022.49)">
        <ellipse cx="1006.83" cy="682.335" rx="268.17" ry="229.569" style="fill:rgb(206,217,38);"/>
    </g>
    <g transform="matrix(0.302684,0,0,0.315032,1052.67,137.003)">
        <ellipse cx="1006.83" cy="682.335" rx="268.17" ry="229.569" style="fill:rgb(255,47,146);"/>
    </g>
    <g transform="matrix(0.302684,0,0,0.315032,-89.2179,407.992)">
        <ellipse cx="1006.83" cy="682.335" rx="268.17" ry="229.569" style="fill:rgb(255,47,146);"/>
    </g>
    <g transform="matrix(0.302684,0,0,0.315032,149.735,28.4313)">
        <ellipse cx="1006.83" cy="682.335" rx="268.17" ry="229.569" style="fill:rgb(255,47,146);"/>
    </g>
</svg>
